<svg width="24" height="24" fill="none" xmlns="http://www.w3.org/2000/svg"><path d="m13.943 1.258 1.927 4.067a2.176 2.176 0 0 0 1.63 1.234l4.31.652c1.777.269 2.486 2.542 1.2 3.848l-3.119 3.165a2.316 2.316 0 0 0-.623 1.996l.736 4.47c.304 1.843-1.553 3.248-3.142 2.378l-3.854-2.109a2.09 2.09 0 0 0-2.016 0l-3.855 2.11c-1.588.87-3.446-.536-3.142-2.378l.736-4.47a2.315 2.315 0 0 0-.623-1.998L.99 11.058C-.296 9.753.414 7.48 2.19 7.21l4.31-.652a2.176 2.176 0 0 0 1.63-1.234l1.927-4.066a2.13 2.13 0 0 1 3.886 0Z" fill="#34B67A"/></svg>