<svg width="24" height="24" fill="none" xmlns="http://www.w3.org/2000/svg"><path d="m14.276 1.258 1.927 4.067a2.176 2.176 0 0 0 1.631 1.234l4.31.652c1.776.269 2.485 2.542 1.2 3.848l-3.12 3.165a2.315 2.315 0 0 0-.622 1.996l.736 4.47c.303 1.843-1.554 3.248-3.143 2.378l-3.854-2.109a2.09 2.09 0 0 0-2.016 0l-3.854 2.11c-1.589.87-3.446-.536-3.143-2.378l.736-4.47a2.315 2.315 0 0 0-.622-1.998l-3.119-3.165C.038 9.753.747 7.48 2.523 7.21l4.31-.652a2.176 2.176 0 0 0 1.63-1.234l1.927-4.066a2.13 2.13 0 0 1 3.886 0Z" fill="#34B67A"/></svg>