<svg width="13" height="13" fill="none" xmlns="http://www.w3.org/2000/svg"><path d="M4.416 6.5a2.085 2.085 0 1 1 4.17 0 2.085 2.085 0 0 1-4.17 0Zm-1.127 0a3.212 3.212 0 1 0 6.423.001 3.212 3.212 0 0 0-6.423 0Zm5.8-3.34a.75.75 0 1 0 .75-.75.75.75 0 0 0-.75.75Zm-5.115 8.432c-.61-.028-.941-.13-1.162-.215-.291-.114-.5-.25-.719-.468a1.929 1.929 0 0 1-.468-.72c-.085-.22-.187-.55-.215-1.16-.03-.66-.036-.858-.036-2.529 0-1.67.006-1.868.036-2.528.028-.61.13-.94.215-1.161.114-.292.25-.5.468-.72.219-.22.427-.355.72-.468.22-.086.551-.187 1.16-.215.66-.03.858-.036 2.527-.036 1.67 0 1.868.006 2.528.036.61.028.94.13 1.16.215.293.113.501.25.72.468.22.219.354.427.468.72.086.22.188.551.215 1.161.03.66.037.858.037 2.528s-.007 1.868-.037 2.528c-.028.61-.13.942-.215 1.162-.114.292-.249.5-.468.719a1.944 1.944 0 0 1-.72.468c-.22.086-.55.187-1.16.215-.66.03-.858.036-2.528.036s-1.867-.006-2.526-.036ZM3.922.282c-.666.03-1.12.136-1.518.291-.411.16-.76.374-1.108.722a3.057 3.057 0 0 0-.721 1.108C.42 2.8.315 3.255.285 3.92c-.031.667-.038.88-.038 2.58 0 1.698.007 1.911.037 2.578.03.666.136 1.121.29 1.519.16.41.374.76.722 1.108.348.347.697.561 1.108.721.398.155.852.26 1.518.29.667.031.88.039 2.578.039 1.699 0 1.912-.007 2.579-.038.665-.03 1.12-.136 1.518-.29.41-.16.76-.375 1.107-.722.348-.348.562-.697.722-1.108.154-.398.26-.853.29-1.519.03-.667.038-.88.038-2.579 0-1.699-.008-1.912-.038-2.579-.03-.666-.136-1.12-.29-1.518a3.076 3.076 0 0 0-.722-1.108 3.06 3.06 0 0 0-1.107-.722C10.2.418 9.744.313 9.08.283 8.412.253 8.2.245 6.501.245S4.589.252 3.922.283Z" fill="#fff"/></svg>