<svg width="13" height="14" fill="none" xmlns="http://www.w3.org/2000/svg"><path d="M4.416 6.834a2.085 2.085 0 1 1 4.17-.001 2.085 2.085 0 0 1-4.17 0Zm-1.127 0a3.212 3.212 0 1 0 6.423 0 3.212 3.212 0 0 0-6.423 0Zm5.8-3.34a.75.75 0 1 0 .75-.75.75.75 0 0 0-.75.75Zm-5.115 8.432c-.61-.028-.941-.13-1.162-.216-.292-.113-.5-.249-.719-.468a1.929 1.929 0 0 1-.468-.719c-.086-.22-.187-.551-.215-1.161-.03-.66-.036-.858-.036-2.528s.006-1.868.036-2.528c.028-.61.13-.941.215-1.162.114-.292.25-.5.468-.72.219-.219.427-.354.72-.467.22-.086.551-.188 1.16-.216.66-.03.858-.036 2.527-.036 1.67 0 1.868.007 2.527.036.61.028.941.13 1.162.216.292.113.5.249.72.468.218.218.353.427.467.72.086.22.187.55.215 1.16.03.66.036.858.036 2.529 0 1.67-.006 1.868-.036 2.528-.028.61-.13.941-.215 1.161-.114.293-.25.5-.468.72a1.944 1.944 0 0 1-.72.467c-.22.086-.55.188-1.16.216-.66.03-.858.036-2.528.036s-1.867-.006-2.526-.036ZM3.922.616c-.666.03-1.12.136-1.518.29-.411.16-.76.374-1.108.722a3.057 3.057 0 0 0-.721 1.108c-.155.398-.26.853-.29 1.519-.031.667-.039.88-.039 2.579 0 1.698.008 1.912.038 2.579.03.666.136 1.12.29 1.518.16.411.374.76.722 1.108.348.348.697.562 1.108.722.398.154.852.26 1.518.29.667.03.88.038 2.578.038 1.699 0 1.912-.007 2.579-.038.665-.03 1.12-.136 1.518-.29.41-.16.76-.374 1.107-.722.348-.347.561-.697.722-1.108.154-.397.26-.852.29-1.518.03-.668.038-.88.038-2.58 0-1.698-.008-1.911-.038-2.578-.03-.666-.136-1.121-.29-1.519a3.076 3.076 0 0 0-.722-1.108 3.06 3.06 0 0 0-1.107-.721C10.199.752 9.744.646 9.079.616c-.667-.03-.88-.038-2.578-.038-1.699 0-1.912.007-2.58.038Z" fill="#fff"/></svg>