<svg width="13" height="13" fill="none" xmlns="http://www.w3.org/2000/svg"><path d="M4.416 6.5a2.085 2.085 0 1 1 4.17-.001 2.085 2.085 0 0 1-4.17 0Zm-1.127 0a3.212 3.212 0 1 0 6.423.001A3.212 3.212 0 0 0 3.29 6.5Zm5.8-3.34a.75.75 0 1 0 .75-.75.75.75 0 0 0-.75.75Zm-5.115 8.432c-.61-.028-.941-.13-1.162-.215-.291-.114-.5-.25-.719-.468a1.93 1.93 0 0 1-.468-.72c-.085-.22-.187-.551-.215-1.161-.03-.66-.036-.857-.036-2.528 0-1.67.006-1.868.036-2.528.028-.61.13-.94.215-1.162.114-.292.25-.5.468-.72.219-.218.427-.354.72-.467.22-.086.551-.188 1.16-.215.66-.03.858-.037 2.527-.037 1.67 0 1.868.007 2.528.037.61.027.94.13 1.16.215.293.113.501.249.72.468.22.219.354.427.468.72.086.22.188.551.215 1.161.03.66.037.857.037 2.528 0 1.67-.007 1.868-.037 2.528-.028.61-.13.941-.215 1.162-.114.292-.249.5-.468.719a1.944 1.944 0 0 1-.72.468c-.22.085-.55.187-1.16.215-.66.03-.858.036-2.528.036s-1.867-.006-2.526-.036ZM3.922.282c-.666.03-1.12.136-1.518.29-.411.16-.76.375-1.108.722a3.057 3.057 0 0 0-.721 1.108c-.155.398-.26.853-.29 1.519C.253 4.588.246 4.8.246 6.5c0 1.699.007 1.912.037 2.579.03.666.136 1.12.29 1.518.16.412.374.761.722 1.109.348.347.697.56 1.108.721.398.155.852.26 1.518.29.667.03.88.038 2.578.038 1.699 0 1.912-.007 2.579-.037.665-.03 1.12-.136 1.518-.29.41-.161.76-.375 1.107-.723.348-.347.562-.696.722-1.108.154-.397.26-.852.29-1.518.03-.668.038-.88.038-2.58 0-1.698-.008-1.911-.038-2.578-.03-.666-.136-1.121-.29-1.518a3.076 3.076 0 0 0-.722-1.109 3.06 3.06 0 0 0-1.107-.721C10.2.418 9.744.313 9.08.283 8.412.251 8.2.243 6.501.243S4.589.251 3.922.282Z" fill="#fff"/></svg>